<mxfile host="app.diagrams.net" modified="2023-03-28T14:05:16.977Z" agent="Mozilla/5.0 (X11; Ubuntu; Linux x86_64; rv:109.0) Gecko/20100101 Firefox/111.0" etag="5IBPjq4cXZBqWD0pv5kp" version="21.1.1" type="device">
  <diagram name="Page-1" id="qhE4h_3i4qBu76tBYlBD">
    <mxGraphModel dx="2284" dy="795" grid="1" gridSize="10" guides="1" tooltips="1" connect="1" arrows="1" fold="1" page="1" pageScale="1" pageWidth="850" pageHeight="1100" math="0" shadow="0">
      <root>
        <mxCell id="0" />
        <mxCell id="1" parent="0" />
        <mxCell id="fT9LDh_gJVM8ypwD036T-4" style="edgeStyle=orthogonalEdgeStyle;rounded=0;orthogonalLoop=1;jettySize=auto;html=1;entryX=0;entryY=0.5;entryDx=0;entryDy=0;" parent="1" source="wlGQNdX2DJyH5vfrL-BH-1" target="fT9LDh_gJVM8ypwD036T-2" edge="1">
          <mxGeometry relative="1" as="geometry" />
        </mxCell>
        <mxCell id="fT9LDh_gJVM8ypwD036T-5" style="edgeStyle=orthogonalEdgeStyle;rounded=0;orthogonalLoop=1;jettySize=auto;html=1;entryX=0;entryY=0.5;entryDx=0;entryDy=0;" parent="1" source="wlGQNdX2DJyH5vfrL-BH-1" target="fT9LDh_gJVM8ypwD036T-1" edge="1">
          <mxGeometry relative="1" as="geometry" />
        </mxCell>
        <mxCell id="wlGQNdX2DJyH5vfrL-BH-1" value="User" style="shape=umlActor;verticalLabelPosition=bottom;verticalAlign=top;html=1;outlineConnect=0;" parent="1" vertex="1">
          <mxGeometry x="30" y="175" width="30" height="60" as="geometry" />
        </mxCell>
        <mxCell id="wlGQNdX2DJyH5vfrL-BH-28" style="edgeStyle=orthogonalEdgeStyle;rounded=0;orthogonalLoop=1;jettySize=auto;html=1;entryX=0.5;entryY=0;entryDx=0;entryDy=0;" parent="1" source="wlGQNdX2DJyH5vfrL-BH-2" target="wlGQNdX2DJyH5vfrL-BH-18" edge="1">
          <mxGeometry relative="1" as="geometry" />
        </mxCell>
        <mxCell id="wlGQNdX2DJyH5vfrL-BH-2" value="Survey" style="ellipse;whiteSpace=wrap;html=1;" parent="1" vertex="1">
          <mxGeometry x="297" y="180" width="70" height="50" as="geometry" />
        </mxCell>
        <mxCell id="fT9LDh_gJVM8ypwD036T-9" style="edgeStyle=orthogonalEdgeStyle;rounded=0;orthogonalLoop=1;jettySize=auto;html=1;entryX=0;entryY=0.5;entryDx=0;entryDy=0;" parent="1" source="wlGQNdX2DJyH5vfrL-BH-7" target="IL9iiKm7IPpPb1EllRRy-1" edge="1">
          <mxGeometry relative="1" as="geometry">
            <Array as="points">
              <mxPoint x="315" y="475" />
            </Array>
          </mxGeometry>
        </mxCell>
        <mxCell id="fT9LDh_gJVM8ypwD036T-10" style="edgeStyle=orthogonalEdgeStyle;rounded=0;orthogonalLoop=1;jettySize=auto;html=1;entryX=0;entryY=0.5;entryDx=0;entryDy=0;" parent="1" source="wlGQNdX2DJyH5vfrL-BH-7" target="IL9iiKm7IPpPb1EllRRy-45" edge="1">
          <mxGeometry relative="1" as="geometry">
            <Array as="points">
              <mxPoint x="315" y="390" />
              <mxPoint x="50" y="390" />
              <mxPoint x="50" y="775" />
            </Array>
          </mxGeometry>
        </mxCell>
        <mxCell id="fT9LDh_gJVM8ypwD036T-40" style="edgeStyle=orthogonalEdgeStyle;rounded=0;orthogonalLoop=1;jettySize=auto;html=1;entryX=0;entryY=0.5;entryDx=0;entryDy=0;" parent="1" source="wlGQNdX2DJyH5vfrL-BH-7" target="fT9LDh_gJVM8ypwD036T-36" edge="1">
          <mxGeometry relative="1" as="geometry">
            <Array as="points">
              <mxPoint x="315" y="390" />
              <mxPoint x="50" y="390" />
              <mxPoint x="50" y="915" />
            </Array>
          </mxGeometry>
        </mxCell>
        <mxCell id="wlGQNdX2DJyH5vfrL-BH-7" value="Feed" style="ellipse;whiteSpace=wrap;html=1;" parent="1" vertex="1">
          <mxGeometry x="280" y="280" width="70" height="50" as="geometry" />
        </mxCell>
        <mxCell id="wlGQNdX2DJyH5vfrL-BH-29" style="edgeStyle=orthogonalEdgeStyle;rounded=0;orthogonalLoop=1;jettySize=auto;html=1;" parent="1" source="wlGQNdX2DJyH5vfrL-BH-11" target="wlGQNdX2DJyH5vfrL-BH-18" edge="1">
          <mxGeometry relative="1" as="geometry">
            <mxPoint x="560" y="305" as="targetPoint" />
          </mxGeometry>
        </mxCell>
        <mxCell id="wlGQNdX2DJyH5vfrL-BH-11" value="User Classification API" style="shape=umlActor;verticalLabelPosition=bottom;verticalAlign=top;html=1;outlineConnect=0;" parent="1" vertex="1">
          <mxGeometry x="710" y="275" width="30" height="60" as="geometry" />
        </mxCell>
        <mxCell id="wlGQNdX2DJyH5vfrL-BH-20" style="edgeStyle=orthogonalEdgeStyle;rounded=0;orthogonalLoop=1;jettySize=auto;html=1;entryX=1;entryY=0.5;entryDx=0;entryDy=0;" parent="1" source="wlGQNdX2DJyH5vfrL-BH-18" target="wlGQNdX2DJyH5vfrL-BH-7" edge="1">
          <mxGeometry relative="1" as="geometry" />
        </mxCell>
        <mxCell id="wlGQNdX2DJyH5vfrL-BH-18" value="Suggest Users" style="ellipse;whiteSpace=wrap;html=1;" parent="1" vertex="1">
          <mxGeometry x="480" y="280" width="70" height="50" as="geometry" />
        </mxCell>
        <mxCell id="IL9iiKm7IPpPb1EllRRy-22" style="edgeStyle=orthogonalEdgeStyle;rounded=0;orthogonalLoop=1;jettySize=auto;html=1;endArrow=none;endFill=0;" parent="1" source="wlGQNdX2DJyH5vfrL-BH-38" target="wlGQNdX2DJyH5vfrL-BH-11" edge="1">
          <mxGeometry relative="1" as="geometry" />
        </mxCell>
        <mxCell id="fT9LDh_gJVM8ypwD036T-19" style="edgeStyle=orthogonalEdgeStyle;rounded=0;orthogonalLoop=1;jettySize=auto;html=1;entryX=1;entryY=0.5;entryDx=0;entryDy=0;endArrow=none;endFill=0;" parent="1" source="wlGQNdX2DJyH5vfrL-BH-38" target="IL9iiKm7IPpPb1EllRRy-18" edge="1">
          <mxGeometry relative="1" as="geometry">
            <Array as="points">
              <mxPoint x="720" y="678" />
            </Array>
          </mxGeometry>
        </mxCell>
        <mxCell id="fT9LDh_gJVM8ypwD036T-20" style="edgeStyle=orthogonalEdgeStyle;rounded=0;orthogonalLoop=1;jettySize=auto;html=1;entryX=1;entryY=0.5;entryDx=0;entryDy=0;endArrow=none;endFill=0;" parent="1" source="wlGQNdX2DJyH5vfrL-BH-38" target="IL9iiKm7IPpPb1EllRRy-23" edge="1">
          <mxGeometry relative="1" as="geometry">
            <Array as="points">
              <mxPoint x="720" y="782" />
            </Array>
          </mxGeometry>
        </mxCell>
        <mxCell id="fT9LDh_gJVM8ypwD036T-21" style="edgeStyle=orthogonalEdgeStyle;rounded=0;orthogonalLoop=1;jettySize=auto;html=1;entryX=1;entryY=0.5;entryDx=0;entryDy=0;endArrow=none;endFill=0;" parent="1" source="wlGQNdX2DJyH5vfrL-BH-38" target="IL9iiKm7IPpPb1EllRRy-34" edge="1">
          <mxGeometry relative="1" as="geometry">
            <Array as="points">
              <mxPoint x="720" y="855" />
            </Array>
          </mxGeometry>
        </mxCell>
        <mxCell id="fT9LDh_gJVM8ypwD036T-27" style="edgeStyle=orthogonalEdgeStyle;rounded=0;orthogonalLoop=1;jettySize=auto;html=1;entryX=0.5;entryY=0.5;entryDx=0;entryDy=0;entryPerimeter=0;endArrow=none;endFill=0;" parent="1" source="wlGQNdX2DJyH5vfrL-BH-38" target="IL9iiKm7IPpPb1EllRRy-2" edge="1">
          <mxGeometry relative="1" as="geometry">
            <Array as="points">
              <mxPoint x="725" y="475" />
            </Array>
          </mxGeometry>
        </mxCell>
        <mxCell id="wlGQNdX2DJyH5vfrL-BH-38" value="Database" style="shape=cylinder3;whiteSpace=wrap;html=1;boundedLbl=1;backgroundOutline=1;size=15;" parent="1" vertex="1">
          <mxGeometry x="695" y="545" width="60" height="80" as="geometry" />
        </mxCell>
        <mxCell id="IL9iiKm7IPpPb1EllRRy-10" style="edgeStyle=orthogonalEdgeStyle;rounded=0;orthogonalLoop=1;jettySize=auto;html=1;entryX=0;entryY=0.5;entryDx=0;entryDy=0;" parent="1" source="IL9iiKm7IPpPb1EllRRy-1" target="IL9iiKm7IPpPb1EllRRy-3" edge="1">
          <mxGeometry relative="1" as="geometry" />
        </mxCell>
        <mxCell id="IL9iiKm7IPpPb1EllRRy-1" value="Explore Feed" style="ellipse;whiteSpace=wrap;html=1;" parent="1" vertex="1">
          <mxGeometry x="368" y="450" width="70" height="50" as="geometry" />
        </mxCell>
        <mxCell id="IL9iiKm7IPpPb1EllRRy-5" style="edgeStyle=orthogonalEdgeStyle;rounded=0;orthogonalLoop=1;jettySize=auto;html=1;entryX=1;entryY=0.5;entryDx=0;entryDy=0;" parent="1" source="IL9iiKm7IPpPb1EllRRy-2" target="IL9iiKm7IPpPb1EllRRy-3" edge="1">
          <mxGeometry relative="1" as="geometry" />
        </mxCell>
        <mxCell id="IL9iiKm7IPpPb1EllRRy-2" value="&lt;div&gt;Search Engine&lt;/div&gt;&lt;div&gt;&lt;br&gt;&lt;/div&gt;" style="shape=umlActor;verticalLabelPosition=bottom;verticalAlign=top;html=1;outlineConnect=0;" parent="1" vertex="1">
          <mxGeometry x="640" y="445" width="30" height="60" as="geometry" />
        </mxCell>
        <mxCell id="IL9iiKm7IPpPb1EllRRy-12" style="edgeStyle=orthogonalEdgeStyle;rounded=0;orthogonalLoop=1;jettySize=auto;html=1;entryX=0.5;entryY=0;entryDx=0;entryDy=0;" parent="1" source="IL9iiKm7IPpPb1EllRRy-3" target="IL9iiKm7IPpPb1EllRRy-11" edge="1">
          <mxGeometry relative="1" as="geometry">
            <Array as="points">
              <mxPoint x="543" y="510" />
              <mxPoint x="203" y="510" />
            </Array>
          </mxGeometry>
        </mxCell>
        <mxCell id="IL9iiKm7IPpPb1EllRRy-3" value="Search" style="ellipse;whiteSpace=wrap;html=1;" parent="1" vertex="1">
          <mxGeometry x="508" y="450" width="70" height="50" as="geometry" />
        </mxCell>
        <mxCell id="fT9LDh_gJVM8ypwD036T-16" style="edgeStyle=orthogonalEdgeStyle;rounded=0;orthogonalLoop=1;jettySize=auto;html=1;entryX=0;entryY=0.5;entryDx=0;entryDy=0;" parent="1" source="IL9iiKm7IPpPb1EllRRy-11" target="fT9LDh_gJVM8ypwD036T-14" edge="1">
          <mxGeometry relative="1" as="geometry">
            <Array as="points">
              <mxPoint x="268" y="585" />
              <mxPoint x="268" y="545" />
            </Array>
          </mxGeometry>
        </mxCell>
        <mxCell id="fT9LDh_gJVM8ypwD036T-18" style="edgeStyle=orthogonalEdgeStyle;rounded=0;orthogonalLoop=1;jettySize=auto;html=1;entryX=0;entryY=0.5;entryDx=0;entryDy=0;" parent="1" source="IL9iiKm7IPpPb1EllRRy-11" target="IL9iiKm7IPpPb1EllRRy-15" edge="1">
          <mxGeometry relative="1" as="geometry">
            <Array as="points">
              <mxPoint x="203" y="678" />
            </Array>
          </mxGeometry>
        </mxCell>
        <mxCell id="fT9LDh_gJVM8ypwD036T-29" style="edgeStyle=orthogonalEdgeStyle;rounded=0;orthogonalLoop=1;jettySize=auto;html=1;entryX=0;entryY=0.5;entryDx=0;entryDy=0;" parent="1" source="IL9iiKm7IPpPb1EllRRy-11" target="fT9LDh_gJVM8ypwD036T-28" edge="1">
          <mxGeometry relative="1" as="geometry">
            <Array as="points">
              <mxPoint x="268" y="585" />
              <mxPoint x="268" y="628" />
            </Array>
          </mxGeometry>
        </mxCell>
        <mxCell id="IL9iiKm7IPpPb1EllRRy-11" value="Profile" style="ellipse;whiteSpace=wrap;html=1;" parent="1" vertex="1">
          <mxGeometry x="168" y="560" width="70" height="50" as="geometry" />
        </mxCell>
        <mxCell id="IL9iiKm7IPpPb1EllRRy-20" style="edgeStyle=orthogonalEdgeStyle;rounded=0;orthogonalLoop=1;jettySize=auto;html=1;entryX=0;entryY=0.5;entryDx=0;entryDy=0;" parent="1" source="IL9iiKm7IPpPb1EllRRy-15" target="IL9iiKm7IPpPb1EllRRy-18" edge="1">
          <mxGeometry relative="1" as="geometry" />
        </mxCell>
        <mxCell id="IL9iiKm7IPpPb1EllRRy-15" value="&lt;div&gt;Create an Outfit&lt;/div&gt;" style="ellipse;whiteSpace=wrap;html=1;" parent="1" vertex="1">
          <mxGeometry x="268" y="652.5" width="70" height="50" as="geometry" />
        </mxCell>
        <mxCell id="fT9LDh_gJVM8ypwD036T-31" value="" style="edgeStyle=orthogonalEdgeStyle;rounded=0;orthogonalLoop=1;jettySize=auto;html=1;" parent="1" source="IL9iiKm7IPpPb1EllRRy-18" target="fT9LDh_gJVM8ypwD036T-15" edge="1">
          <mxGeometry relative="1" as="geometry" />
        </mxCell>
        <mxCell id="IL9iiKm7IPpPb1EllRRy-18" value="&lt;div&gt;Select outfit &amp;amp; save&lt;/div&gt;" style="ellipse;whiteSpace=wrap;html=1;" parent="1" vertex="1">
          <mxGeometry x="438" y="652.5" width="70" height="50" as="geometry" />
        </mxCell>
        <mxCell id="IL9iiKm7IPpPb1EllRRy-31" style="edgeStyle=orthogonalEdgeStyle;rounded=0;orthogonalLoop=1;jettySize=auto;html=1;" parent="1" source="IL9iiKm7IPpPb1EllRRy-23" target="IL9iiKm7IPpPb1EllRRy-18" edge="1">
          <mxGeometry relative="1" as="geometry" />
        </mxCell>
        <mxCell id="IL9iiKm7IPpPb1EllRRy-23" value="Edit outfit" style="ellipse;whiteSpace=wrap;html=1;" parent="1" vertex="1">
          <mxGeometry x="438" y="757.5" width="70" height="50" as="geometry" />
        </mxCell>
        <mxCell id="fT9LDh_gJVM8ypwD036T-25" style="edgeStyle=orthogonalEdgeStyle;rounded=0;orthogonalLoop=1;jettySize=auto;html=1;entryX=0.5;entryY=1;entryDx=0;entryDy=0;" parent="1" source="IL9iiKm7IPpPb1EllRRy-34" target="fT9LDh_gJVM8ypwD036T-24" edge="1">
          <mxGeometry relative="1" as="geometry" />
        </mxCell>
        <mxCell id="IL9iiKm7IPpPb1EllRRy-34" value="Post" style="ellipse;whiteSpace=wrap;html=1;" parent="1" vertex="1">
          <mxGeometry x="338" y="830" width="70" height="50" as="geometry" />
        </mxCell>
        <mxCell id="IL9iiKm7IPpPb1EllRRy-46" style="edgeStyle=orthogonalEdgeStyle;rounded=0;orthogonalLoop=1;jettySize=auto;html=1;entryX=0;entryY=0.5;entryDx=0;entryDy=0;" parent="1" source="IL9iiKm7IPpPb1EllRRy-45" target="IL9iiKm7IPpPb1EllRRy-34" edge="1">
          <mxGeometry relative="1" as="geometry" />
        </mxCell>
        <mxCell id="IL9iiKm7IPpPb1EllRRy-45" value="&lt;div&gt;Make a &lt;br&gt;&lt;/div&gt;&lt;div&gt;Post&lt;/div&gt;" style="ellipse;whiteSpace=wrap;html=1;" parent="1" vertex="1">
          <mxGeometry x="178" y="750" width="70" height="50" as="geometry" />
        </mxCell>
        <mxCell id="fT9LDh_gJVM8ypwD036T-7" style="edgeStyle=orthogonalEdgeStyle;rounded=0;orthogonalLoop=1;jettySize=auto;html=1;entryX=0;entryY=0.5;entryDx=0;entryDy=0;" parent="1" source="fT9LDh_gJVM8ypwD036T-1" target="wlGQNdX2DJyH5vfrL-BH-7" edge="1">
          <mxGeometry relative="1" as="geometry" />
        </mxCell>
        <mxCell id="fT9LDh_gJVM8ypwD036T-11" style="edgeStyle=orthogonalEdgeStyle;rounded=0;orthogonalLoop=1;jettySize=auto;html=1;entryX=0.5;entryY=0;entryDx=0;entryDy=0;fillColor=#fff2cc;strokeColor=#C1C0D1;" parent="1" source="fT9LDh_gJVM8ypwD036T-1" target="IL9iiKm7IPpPb1EllRRy-11" edge="1">
          <mxGeometry relative="1" as="geometry">
            <Array as="points">
              <mxPoint x="175" y="305" />
            </Array>
          </mxGeometry>
        </mxCell>
        <mxCell id="fT9LDh_gJVM8ypwD036T-1" value="Login" style="ellipse;whiteSpace=wrap;html=1;" parent="1" vertex="1">
          <mxGeometry x="140" y="280" width="70" height="50" as="geometry" />
        </mxCell>
        <mxCell id="fT9LDh_gJVM8ypwD036T-3" style="edgeStyle=orthogonalEdgeStyle;rounded=0;orthogonalLoop=1;jettySize=auto;html=1;entryX=0;entryY=0.5;entryDx=0;entryDy=0;" parent="1" source="fT9LDh_gJVM8ypwD036T-2" target="wlGQNdX2DJyH5vfrL-BH-2" edge="1">
          <mxGeometry relative="1" as="geometry" />
        </mxCell>
        <mxCell id="fT9LDh_gJVM8ypwD036T-34" style="edgeStyle=orthogonalEdgeStyle;rounded=0;orthogonalLoop=1;jettySize=auto;html=1;entryX=0.5;entryY=0;entryDx=0;entryDy=0;" parent="1" source="fT9LDh_gJVM8ypwD036T-2" target="wlGQNdX2DJyH5vfrL-BH-18" edge="1">
          <mxGeometry relative="1" as="geometry">
            <Array as="points">
              <mxPoint x="165" y="250" />
              <mxPoint x="515" y="250" />
            </Array>
          </mxGeometry>
        </mxCell>
        <mxCell id="fT9LDh_gJVM8ypwD036T-35" value="&lt;div&gt;Skip Survey&lt;/div&gt;" style="edgeLabel;html=1;align=center;verticalAlign=middle;resizable=0;points=[];" parent="fT9LDh_gJVM8ypwD036T-34" vertex="1" connectable="0">
          <mxGeometry x="-0.075" y="2" relative="1" as="geometry">
            <mxPoint as="offset" />
          </mxGeometry>
        </mxCell>
        <mxCell id="fT9LDh_gJVM8ypwD036T-2" value="Signup" style="ellipse;whiteSpace=wrap;html=1;" parent="1" vertex="1">
          <mxGeometry x="130" y="180" width="70" height="50" as="geometry" />
        </mxCell>
        <mxCell id="fT9LDh_gJVM8ypwD036T-13" style="edgeStyle=orthogonalEdgeStyle;rounded=0;orthogonalLoop=1;jettySize=auto;html=1;entryX=0;entryY=0.5;entryDx=0;entryDy=0;" parent="1" source="fT9LDh_gJVM8ypwD036T-14" target="fT9LDh_gJVM8ypwD036T-15" edge="1">
          <mxGeometry relative="1" as="geometry" />
        </mxCell>
        <mxCell id="fT9LDh_gJVM8ypwD036T-14" value="Edit Profile" style="ellipse;whiteSpace=wrap;html=1;" parent="1" vertex="1">
          <mxGeometry x="308" y="520" width="70" height="50" as="geometry" />
        </mxCell>
        <mxCell id="fT9LDh_gJVM8ypwD036T-17" style="edgeStyle=orthogonalEdgeStyle;rounded=0;orthogonalLoop=1;jettySize=auto;html=1;entryX=0;entryY=0.5;entryDx=0;entryDy=0;entryPerimeter=0;" parent="1" source="fT9LDh_gJVM8ypwD036T-15" target="wlGQNdX2DJyH5vfrL-BH-38" edge="1">
          <mxGeometry relative="1" as="geometry">
            <mxPoint x="723" y="585" as="targetPoint" />
          </mxGeometry>
        </mxCell>
        <mxCell id="fT9LDh_gJVM8ypwD036T-15" value="Stage Changes" style="ellipse;whiteSpace=wrap;html=1;" parent="1" vertex="1">
          <mxGeometry x="488" y="560" width="70" height="50" as="geometry" />
        </mxCell>
        <mxCell id="fT9LDh_gJVM8ypwD036T-26" style="edgeStyle=orthogonalEdgeStyle;rounded=0;orthogonalLoop=1;jettySize=auto;html=1;entryX=0;entryY=0.5;entryDx=0;entryDy=0;" parent="1" source="fT9LDh_gJVM8ypwD036T-24" target="IL9iiKm7IPpPb1EllRRy-18" edge="1">
          <mxGeometry relative="1" as="geometry">
            <Array as="points">
              <mxPoint x="373" y="678" />
            </Array>
          </mxGeometry>
        </mxCell>
        <mxCell id="fT9LDh_gJVM8ypwD036T-24" value="Suggest an outfit" style="ellipse;whiteSpace=wrap;html=1;" parent="1" vertex="1">
          <mxGeometry x="338" y="720" width="70" height="50" as="geometry" />
        </mxCell>
        <mxCell id="fT9LDh_gJVM8ypwD036T-30" style="edgeStyle=orthogonalEdgeStyle;rounded=0;orthogonalLoop=1;jettySize=auto;html=1;entryX=0;entryY=0.5;entryDx=0;entryDy=0;" parent="1" source="fT9LDh_gJVM8ypwD036T-28" target="fT9LDh_gJVM8ypwD036T-15" edge="1">
          <mxGeometry relative="1" as="geometry" />
        </mxCell>
        <mxCell id="fT9LDh_gJVM8ypwD036T-28" value="&lt;div&gt;Edit Closet&lt;/div&gt;" style="ellipse;whiteSpace=wrap;html=1;" parent="1" vertex="1">
          <mxGeometry x="308" y="602.5" width="70" height="50" as="geometry" />
        </mxCell>
        <mxCell id="fT9LDh_gJVM8ypwD036T-42" style="edgeStyle=orthogonalEdgeStyle;rounded=0;orthogonalLoop=1;jettySize=auto;html=1;" parent="1" source="fT9LDh_gJVM8ypwD036T-36" target="fT9LDh_gJVM8ypwD036T-41" edge="1">
          <mxGeometry relative="1" as="geometry" />
        </mxCell>
        <mxCell id="fT9LDh_gJVM8ypwD036T-36" value="Messages" style="ellipse;whiteSpace=wrap;html=1;" parent="1" vertex="1">
          <mxGeometry x="248" y="890" width="70" height="50" as="geometry" />
        </mxCell>
        <mxCell id="fT9LDh_gJVM8ypwD036T-47" style="edgeStyle=orthogonalEdgeStyle;rounded=0;orthogonalLoop=1;jettySize=auto;html=1;" parent="1" source="fT9LDh_gJVM8ypwD036T-41" target="fT9LDh_gJVM8ypwD036T-44" edge="1">
          <mxGeometry relative="1" as="geometry" />
        </mxCell>
        <mxCell id="fT9LDh_gJVM8ypwD036T-41" value="Send Message" style="ellipse;whiteSpace=wrap;html=1;" parent="1" vertex="1">
          <mxGeometry x="248" y="970" width="70" height="50" as="geometry" />
        </mxCell>
        <mxCell id="fT9LDh_gJVM8ypwD036T-46" style="edgeStyle=orthogonalEdgeStyle;rounded=0;orthogonalLoop=1;jettySize=auto;html=1;entryX=0.5;entryY=1;entryDx=0;entryDy=0;entryPerimeter=0;endArrow=none;endFill=0;" parent="1" source="fT9LDh_gJVM8ypwD036T-44" target="wlGQNdX2DJyH5vfrL-BH-38" edge="1">
          <mxGeometry relative="1" as="geometry">
            <Array as="points">
              <mxPoint x="720" y="915" />
              <mxPoint x="720" y="625" />
            </Array>
          </mxGeometry>
        </mxCell>
        <mxCell id="fT9LDh_gJVM8ypwD036T-48" style="edgeStyle=orthogonalEdgeStyle;rounded=0;orthogonalLoop=1;jettySize=auto;html=1;entryX=1;entryY=0.5;entryDx=0;entryDy=0;" parent="1" source="fT9LDh_gJVM8ypwD036T-44" target="fT9LDh_gJVM8ypwD036T-36" edge="1">
          <mxGeometry relative="1" as="geometry" />
        </mxCell>
        <mxCell id="fT9LDh_gJVM8ypwD036T-44" value="Get or Set Messages" style="ellipse;whiteSpace=wrap;html=1;" parent="1" vertex="1">
          <mxGeometry x="395" y="890" width="70" height="50" as="geometry" />
        </mxCell>
        <mxCell id="fT9LDh_gJVM8ypwD036T-69" style="edgeStyle=orthogonalEdgeStyle;rounded=0;orthogonalLoop=1;jettySize=auto;html=1;entryX=0.5;entryY=1;entryDx=0;entryDy=0;" parent="1" source="fT9LDh_gJVM8ypwD036T-49" target="fT9LDh_gJVM8ypwD036T-41" edge="1">
          <mxGeometry relative="1" as="geometry">
            <Array as="points">
              <mxPoint x="725" y="1040" />
              <mxPoint x="283" y="1040" />
            </Array>
          </mxGeometry>
        </mxCell>
        <mxCell id="fT9LDh_gJVM8ypwD036T-49" value="Video Call API" style="shape=umlActor;verticalLabelPosition=bottom;verticalAlign=top;html=1;outlineConnect=0;" parent="1" vertex="1">
          <mxGeometry x="710" y="940" width="30" height="60" as="geometry" />
        </mxCell>
        <mxCell id="fT9LDh_gJVM8ypwD036T-53" style="edgeStyle=orthogonalEdgeStyle;rounded=0;orthogonalLoop=1;jettySize=auto;html=1;endArrow=none;endFill=0;" parent="1" target="IL9iiKm7IPpPb1EllRRy-11" edge="1">
          <mxGeometry relative="1" as="geometry">
            <mxPoint x="128" y="585" as="sourcePoint" />
          </mxGeometry>
        </mxCell>
        <mxCell id="fT9LDh_gJVM8ypwD036T-52" value="Connect" style="ellipse;whiteSpace=wrap;html=1;" parent="1" vertex="1">
          <mxGeometry x="60" y="560" width="70" height="50" as="geometry" />
        </mxCell>
        <mxCell id="fT9LDh_gJVM8ypwD036T-56" style="edgeStyle=orthogonalEdgeStyle;rounded=0;orthogonalLoop=1;jettySize=auto;html=1;entryX=0;entryY=0.5;entryDx=0;entryDy=0;" parent="1" source="fT9LDh_gJVM8ypwD036T-54" target="fT9LDh_gJVM8ypwD036T-1" edge="1">
          <mxGeometry relative="1" as="geometry" />
        </mxCell>
        <mxCell id="fT9LDh_gJVM8ypwD036T-54" value="Commercial User" style="shape=umlActor;verticalLabelPosition=bottom;verticalAlign=top;html=1;outlineConnect=0;" parent="1" vertex="1">
          <mxGeometry x="8" y="275" width="30" height="60" as="geometry" />
        </mxCell>
        <mxCell id="fT9LDh_gJVM8ypwD036T-62" style="edgeStyle=orthogonalEdgeStyle;rounded=0;orthogonalLoop=1;jettySize=auto;html=1;entryX=0.5;entryY=0.5;entryDx=0;entryDy=0;entryPerimeter=0;" parent="1" source="fT9LDh_gJVM8ypwD036T-57" target="fT9LDh_gJVM8ypwD036T-54" edge="1">
          <mxGeometry relative="1" as="geometry" />
        </mxCell>
        <mxCell id="fT9LDh_gJVM8ypwD036T-68" style="edgeStyle=orthogonalEdgeStyle;rounded=0;orthogonalLoop=1;jettySize=auto;html=1;endArrow=none;endFill=0;" parent="1" edge="1">
          <mxGeometry relative="1" as="geometry">
            <mxPoint x="-141" y="305" as="targetPoint" />
            <mxPoint x="-113" y="305" as="sourcePoint" />
          </mxGeometry>
        </mxCell>
        <mxCell id="fT9LDh_gJVM8ypwD036T-57" value="See or Edit Ads" style="ellipse;whiteSpace=wrap;html=1;" parent="1" vertex="1">
          <mxGeometry x="-122" y="280" width="70" height="50" as="geometry" />
        </mxCell>
        <mxCell id="fT9LDh_gJVM8ypwD036T-61" style="edgeStyle=orthogonalEdgeStyle;rounded=0;orthogonalLoop=1;jettySize=auto;html=1;entryX=0.5;entryY=0;entryDx=0;entryDy=0;entryPerimeter=0;" parent="1" source="fT9LDh_gJVM8ypwD036T-58" target="fT9LDh_gJVM8ypwD036T-54" edge="1">
          <mxGeometry relative="1" as="geometry" />
        </mxCell>
        <mxCell id="fT9LDh_gJVM8ypwD036T-58" value="Statistics" style="ellipse;whiteSpace=wrap;html=1;" parent="1" vertex="1">
          <mxGeometry x="-122" y="200" width="70" height="50" as="geometry" />
        </mxCell>
        <mxCell id="fT9LDh_gJVM8ypwD036T-63" style="edgeStyle=orthogonalEdgeStyle;rounded=0;orthogonalLoop=1;jettySize=auto;html=1;" parent="1" source="fT9LDh_gJVM8ypwD036T-59" target="fT9LDh_gJVM8ypwD036T-54" edge="1">
          <mxGeometry relative="1" as="geometry" />
        </mxCell>
        <mxCell id="fT9LDh_gJVM8ypwD036T-67" style="edgeStyle=orthogonalEdgeStyle;rounded=0;orthogonalLoop=1;jettySize=auto;html=1;endArrow=none;endFill=0;" parent="1" edge="1">
          <mxGeometry relative="1" as="geometry">
            <mxPoint x="-142" y="405" as="targetPoint" />
            <mxPoint x="-114" y="405" as="sourcePoint" />
          </mxGeometry>
        </mxCell>
        <mxCell id="fT9LDh_gJVM8ypwD036T-59" value="See or Edit Contracts" style="ellipse;whiteSpace=wrap;html=1;" parent="1" vertex="1">
          <mxGeometry x="-122" y="380" width="70" height="50" as="geometry" />
        </mxCell>
        <mxCell id="fT9LDh_gJVM8ypwD036T-66" style="edgeStyle=orthogonalEdgeStyle;rounded=0;orthogonalLoop=1;jettySize=auto;html=1;entryX=0;entryY=0.5;entryDx=0;entryDy=0;endArrow=none;endFill=0;" parent="1" source="fT9LDh_gJVM8ypwD036T-64" target="fT9LDh_gJVM8ypwD036T-58" edge="1">
          <mxGeometry relative="1" as="geometry">
            <Array as="points">
              <mxPoint x="-142" y="560" />
              <mxPoint x="-142" y="225" />
            </Array>
          </mxGeometry>
        </mxCell>
        <mxCell id="fT9LDh_gJVM8ypwD036T-64" value="Database" style="shape=cylinder3;whiteSpace=wrap;html=1;boundedLbl=1;backgroundOutline=1;size=15;" parent="1" vertex="1">
          <mxGeometry x="-112" y="520" width="60" height="80" as="geometry" />
        </mxCell>
      </root>
    </mxGraphModel>
  </diagram>
</mxfile>
